<svg xmlns="http://www.w3.org/2000/svg" xmlns:xlink="http://www.w3.org/1999/xlink" width="1154" height="288"><g><svg xmlns="http://www.w3.org/2000/svg" xmlns:xlink="http://www.w3.org/1999/xlink" width="1154" height="288"/><svg xmlns="http://www.w3.org/2000/svg" width="1154" height="288" version="1.0" viewBox="0 0 1154 288"><g fill="#9acde2" transform="matrix(.1 0 0 -.1 0 288)"><path d="M1163 2406c-28-6-55-14-59-18-4-5-18-8-30-8-13 0-25-4-28-8s-28-14-56-22-53-18-56-22-16-8-29-8-27-4-30-10c-3-5-15-10-26-10-10 0-27-4-37-10-9-5-46-19-82-30-36-12-74-25-85-30-11-4-40-14-65-21s-49-16-54-21c-6-4-20-8-32-8-13 0-26-4-29-10-3-5-13-10-21-10-32 0-100-42-121-75-22-33-23-44-23-239 0-232 5-253 70-309 32-27 656-348 755-387 103-42 161-40 275 8 36 15 107 47 264 122 49 23 118 55 155 72 36 16 107 50 157 74 51 24 96 44 102 44s16-9 22-19c11-22 12-211 1-251-7-27-19-33-241-138-69-33-174-83-235-112-294-140-320-150-376-150-62 0-88 12-574 250-121 60-234 111-251 115-37 7-75-6-103-36-20-21-21-34-21-202 0-188 3-203 49-247 21-20 686-358 766-390 11-4 33-13 48-19 37-15 143-14 187 2 19 6 113 50 208 97 480 236 636 317 649 336 12 18 11 24-8 47-11 15-28 27-37 27-16 0-248-112-667-323-160-81-160-81-240-81-81 0-81 0-365 141-157 77-316 155-355 173-38 18-85 44-102 57-33 24-33 24-33 159 0 115 2 136 16 141 10 4 61-16 128-49 189-95 559-274 596-289 43-17 188-18 221-2 408 199 769 379 790 393 53 39 69 94 69 244 0 166-11 198-75 224-34 14-68 5-170-42-27-13-66-30-85-39-19-8-61-27-93-41s-60-26-62-26-30-12-62-26-74-33-93-41-53-23-75-33c-148-66-190-80-250-80-73 0-106 14-473 197-257 128-339 173-358 198-23 31-24 37-24 206 0 174 0 174 26 194 14 10 98 43 187 72 89 30 171 58 182 63s63 23 115 40 103 35 112 40c10 6 25 10 33 10s23 4 33 9c42 21 94 31 166 31 64 0 99-7 200-40 66-22 129-45 138-50 10-6 27-10 37-10 11 0 22-4 25-9s18-11 33-14c36-7 251-82 260-90 3-4 17-7 29-7 13 0 26-4 29-10 3-5 16-10 29-10 12 0 27-5 34-12 25-25 12-45-50-78-112-59-383-194-429-214-24-10-62-27-84-37-79-34-180-47-239-29-23 7-108 45-191 85-289 141-386 185-404 185-21 0-51-30-51-51 1-29 29-49 146-104 65-32 182-88 260-126 77-38 160-75 183-84 77-27 235-18 303 16 10 5 22 9 28 9 14 0 101 40 305 141 313 155 342 173 363 232 10 28 10 40-3 70-20 48-53 69-165 106-52 17-103 36-112 41-10 6-27 10-37 10-11 0-23 5-26 10-3 6-15 10-26 10-10 0-27 4-37 9-28 14-64 28-117 44-27 9-104 35-170 58-196 68-251 77-352 55zm9009-363c-13-2-38-20-57-39-30-30-35-41-35-82 0-61 15-93 57-120 39-26 107-29 149-7 35 18 74 80 74 119 0 33-33 97-59 113-22 14-97 23-129 16zm-5190-74c-23-4-47-11-52-14-6-4-10-56-10-119v-114l-98 1c-213 0-331-82-391-274-14-46-14-183 0-228 45-140 131-228 259-264 55-16 229-20 280-7 88 23 135 46 177 88l33 33v423c0 423 0 423-22 444-13 11-43 25-68 31-51 12-50 12-108 0zm-62-470c11-19 13-282 3-320-11-42-88-50-153-16-59 30-85 80-85 167 0 127 52 188 162 189 53 1 64-2 73-20zm4830 476c-8-2-32-6-52-10l-38-6v-237h-103c-56 1-120-4-142-11-112-35-187-99-232-199-24-51-26-69-26-177 0-110 2-125 28-179 45-97 130-169 235-199 55-16 229-20 280-7 55 15 126 46 163 72 56 40 58 55 55 483-4 477 5 447-133 470-11 2-27 2-35 0zm-102-467c8-8 12-61 12-175 0-162 0-162-30-178-41-21-80-19-130 8-69 36-85 80-81 220 1 42 6 53 46 92 43 44 46 45 108 45 36 0 68-5 75-12zm-6624 397c-72-17-156-60-209-107-110-97-169-279-145-447 19-129 53-204 130-282 95-97 173-123 365-124 125 0 145 2 187 22 86 42 111 115 66 194-25 45-34 47-85 17-32-18-53-22-133-22-97 1-118 7-170 49-37 30-49 48-71 107-39 108-8 279 61 336 74 61 197 70 294 22 57-28 61-29 79-12 10 9 25 29 33 44 48 92-29 179-185 208-69 13-153 11-217-5zm4056 1c-84-16-151-47-195-91-59-60-70-89-70-190 0-80 3-94 25-125 30-42 58-70 89-88 62-36 88-49 106-54 61-18 174-63 198-80 36-26 37-69 1-97-22-17-41-21-108-21-83 0-120 9-194 48-23 13-48 19-54 16-55-34-76-83-64-141 20-88 144-143 322-143 259 0 404 104 404 289 0 81-17 126-66 181-49 54-119 91-268 141-113 38-139 62-113 102 34 53 178 61 282 17 52-22 62-21 88 9 34 41 41 79 23 123-27 63-85 92-216 108-99 12-104 12-190-4zm638-43-38-4v-373c0-308 3-380 15-409 35-84 116-128 247-135 74-4 93-1 131 17 24 12 50 33 58 48 33 61 2 166-42 143-26-15-86-12-119 5-36 19-42 46-38 185l3 105 89 5c83 5 90 7 112 35 26 33 30 71 12 121-14 39-35 46-128 43-37-1-71 1-77 4-6 4-13 41-16 83-7 100-26 121-112 127-33 3-77 3-97 0zm-7171-89c-4-4-7-29-7-55v-47l223-111c123-61 226-111 230-111s7 25 7 55v55l-217 107c-120 60-220 109-224 111-3 1-8-1-12-4zm3303-54c-60-7-74-12-137-42-121-59-193-188-193-346 0-190 103-327 285-382 45-13 199-9 255 7 161 45 260 188 260 373 0 221-142 378-355 392-33 3-85 2-115-2zm153-234c77-77 67-266-16-323-115-79-230 56-196 229 17 86 60 128 129 128 43 0 54-5 83-34zm1626 234c-139-18-252-116-298-261-15-49-14-184 3-240 32-106 103-191 196-236 62-30 90-35 205-40 98-4 156 4 221 33 83 36 102 129 37 187-21 18-29 17-101-16-12-6-64-11-115-11-78 0-99 4-134 23-39 22-69 62-56 75 4 3 18 6 32 6 13 0 50 4 80 10 31 5 90 14 131 20 205 30 230 46 230 146 0 203-187 335-431 304zm130-194c31-16 65-62 57-75-3-5-25-11-48-14-51-7-172-26-190-29-23-5-19 33 7 69 45 58 117 78 174 49zm5051 194c-60-7-74-11-138-43-119-58-192-189-192-345 0-190 103-327 285-382 45-13 199-9 255 7 120 34 209 123 243 243 16 58 20 189 6 239-55 204-226 309-459 281zm153-234c78-77 67-266-18-325-58-39-145-15-173 49-44 100-33 218 25 276 29 29 40 34 83 34s54-5 83-34zm-4558 219c-99-29-156-60-183-98-22-33-22-39-22-313 0-275 0-279 23-305 27-32 85-44 173-34l64 7v264c0 264 0 264 28 270 15 3 37 10 50 15s52 9 88 9c63 0 65 1 80 34 28 57 6 120-53 154-29 15-193 14-248-3zm1920-3-40-7-3-210c-4-234 7-327 44-392 60-104 170-153 339-153 132 1 215 20 287 68 66 43 68 54 68 344 0 320-3 332-94 349-23 5-69 5-103 2l-63-6v-265c0-302 3-291-85-292-67 0-107 25-123 77-8 25-12 113-12 235 0 195 0 195-26 222-15 14-34 26-44 26-9 0-37 2-61 4s-62 1-84-2zm1805 1c-19-3-38-10-42-16-12-19-9-592 3-642 6-24 22-54 36-67 22-21 34-23 114-22 49 0 91 3 94 5 2 3 5 156 5 341 1 346 0 361-39 385-20 13-123 22-171 16zm-9056-218c-15-23-15-29-3-52 17-31 35-39 54-23 18 15 20 71 3 88-19 19-36 14-54-13zm-530-179c-3-8-4-31-2-52 3-39 3-39 218-146 118-60 220-108 228-108 10 0 12 14 10 53l-3 52-215 107c-118 60-219 108-223 108s-10-6-13-14zm527-282c-12-26-9-36 17-66 11-13 19-15 33-7 25 13 27 84 3 93-28 11-41 6-53-20zM546 893c-3-3-6-28-6-54v-47l223-111c122-61 225-111 230-111 4 0 7 24 7 54v54l-87 42c-49 23-149 73-224 111s-139 66-143 62zm534-283c-25-25-25-41-1-71 27-32 55-16 59 34 2 28-1 38-17 47-17 8-24 7-41-10z"/></g></svg><svg xmlns="http://www.w3.org/2000/svg" width="1154" height="288" version="1.0" viewBox="0 0 1154 288"><g fill="#6ccbf6" transform="matrix(.1 0 0 -.1 0 288)"><path d="M1165 2405c-53-14-72-20-345-115-96-33-236-81-310-106-210-71-210-71-210-344 0-227 6-250 77-309 31-26 607-319 733-374 103-45 149-47 247-13 56 19 336 148 652 298 91 43 95 39 99-104 1-63-2-127-7-141-7-18-31-36-83-60-40-19-131-63-203-97-71-34-168-80-215-102s-121-57-165-78c-101-48-139-60-184-60-65 0-90 11-580 253-260 128-292 135-342 79-29-32-29-32-29-207 0-103 4-184 11-198 6-13 25-35 42-50 33-27 671-348 781-393 79-32 155-32 238 0 120 47 826 404 837 424 8 16 6 26-10 46-11 14-28 26-37 26-8 0-198-91-421-202-406-202-406-202-486-202-93 1-64-11-524 218-162 80-303 154-313 163-16 14-18 33-18 155 0 165-4 161 128 94 108-54 507-250 582-284 74-34 202-36 270-5 141 65 746 366 769 382 55 40 65 79 62 251-2 170-8 187-62 215-36 19-57 14-186-47-45-21-85-38-88-38-2 0-34-13-70-30s-68-30-70-30-28-11-57-24c-68-30-144-64-185-82-18-8-48-20-65-28-119-52-188-58-282-24-34 11-204 93-379 180-246 124-323 167-342 192-24 32-25 37-25 209 0 176 0 176 27 195 16 11 64 31 108 45s172 58 285 97c354 123 349 122 430 122 67 1 97-6 270-65 107-37 269-92 360-122 192-65 212-74 208-93-2-8-34-32-73-54-76-43-450-228-459-228-4 0-25-8-49-19-95-42-175-51-251-29-22 7-95 39-161 71-250 124-408 197-425 197-20 0-50-31-50-51 1-28 29-49 131-97 57-27 178-85 269-129s182-86 204-93c58-19 206-8 291 21 86 29 585 276 640 316 73 54 77 142 8 191-16 11-98 43-183 71-85 29-164 56-175 61s-54 20-95 34-129 44-195 67c-197 69-257 78-350 54zm9007-362c-13-2-38-20-57-39-29-28-35-42-35-76 0-64 19-104 61-127 71-40 160-18 198 49 25 44 27 80 6 120-28 55-105 88-173 73zm-5191-74c-24-5-46-11-49-14s-8-57-10-119l-4-114-97 1c-212 0-330-83-390-274-14-46-14-183 0-228 46-143 128-222 280-270 19-6 78-11 131-11 103 0 187 21 265 66 76 44 74 32 71 498-3 471 1 446-89 465-28 6-53 11-57 10s-27-5-51-10zm-61-456c7-6 10-307 3-331-10-41-76-53-143-26-49 20-72 51-94 125-16 59-11 96 24 170 13 27 59 60 100 70 25 6 100 0 110-8zm4830 462c-8-2-32-6-52-10l-38-6v-237h-103c-56 1-120-4-142-11-157-48-245-157-260-321-20-226 81-380 291-440 63-19 236-8 308 18 77 28 134 66 146 98 6 15 10 197 10 433 0 394-1 409-20 434-14 17-37 29-71 36-27 6-51 10-52 10-1-1-9-3-17-4zm-98-468c4-7 8-85 8-174 0-162 0-162-32-179-39-20-94-14-143 16-61 38-88 130-68 231 8 41 81 116 119 122 42 7 107-2 116-16zm-6628 398c-141-34-245-116-303-239-76-158-74-335 4-493 42-84 102-142 190-183 98-46 131-52 265-48 110 3 131 6 174 28 82 42 109 118 66 188-27 44-40 47-86 21-47-26-159-37-220-20-85 23-145 95-176 214-23 90 33 244 106 291 85 55 164 57 270 5 57-27 61-28 79-11 24 21 47 73 47 106s-53 93-104 117c-83 39-212 49-312 24zm4056 1c-84-16-151-47-195-91-58-59-70-90-70-185 0-113 22-154 115-216 40-27 192-94 213-94 22 0 117-55 122-71 7-22-5-47-35-74-17-16-36-20-98-20-78 0-111 9-193 51-26 13-49 24-51 24-3 0-21-13-39-30-31-27-34-34-34-86 0-54 2-58 42-94 61-54 152-80 280-80 257 0 403 104 403 287-1 154-92 243-334 324-113 38-139 62-113 102 34 53 178 61 282 17 52-22 62-21 88 9 51 61 42 124-25 174-46 34-82 46-168 57-91 11-107 11-190-4zm640-44-35-7-3-371c-2-405-1-416 55-469 49-46 110-68 205-73 74-4 93-1 131 17 24 12 50 33 58 48 33 61 2 166-42 143-48-26-144 1-154 43-3 12-4 74-3 137l3 115 85 5c96 6 104 9 126 52 19 37 11 101-18 130-16 16-31 19-97 17-43-1-83 1-88 4-6 4-12 37-15 74-5 71-18 102-49 121-23 15-114 22-159 14zm-7173-88c-4-4-7-29-7-55v-47l224-111c123-61 227-111 230-111s6 25 6 55v55l-217 107c-120 60-220 109-224 111-3 1-8-1-12-4zm3303-54c-60-7-74-11-137-42-121-59-193-188-193-346 0-233 162-392 399-392 245 0 402 153 401 391-1 257-199 421-470 389zm116-206c87-41 115-176 64-304-14-35-70-70-110-70-95 0-162 131-131 256 15 60 41 97 83 117 42 21 52 21 94 1zm1663 206c-109-14-219-90-266-185-34-67-43-108-43-191 0-202 98-330 301-393 19-6 77-11 128-11 151 0 255 41 277 110 14 41 3 78-30 109-24 23-30 22-104-12-13-6-65-11-115-12-79 0-98 3-133 24-40 22-70 62-57 75 4 3 19 6 35 6s48 4 71 9 80 14 127 20c140 19 189 32 216 60 24 24 26 31 22 96-5 87-27 134-93 201-78 79-195 112-336 94zm130-194c33-17 67-65 54-76-6-6-155-34-233-43-25-3-23 33 5 70 45 58 117 78 174 49zm5051 194c-60-7-74-11-138-43-157-76-233-289-171-477 40-124 115-199 238-240 54-18 82-21 156-17 138 6 204 30 274 100 112 110 143 311 72 462-75 160-232 239-431 215zm116-206c87-41 115-176 64-304-14-35-70-70-110-70-45 0-96 37-114 82-48 119-18 250 66 291 42 21 52 21 94 1zm-4521 191c-99-29-156-60-183-98-21-32-22-40-22-306 0-277 3-300 39-328 24-18 94-26 156-18l55 6v259c0 196 3 261 13 267 22 15 101 32 147 33 67 1 87 9 100 41 23 56-4 115-67 148-28 14-186 12-238-4zm1924-2c-48-5-49-13-49-262 1-289 24-364 133-438 68-45 138-63 254-63 154 0 310 55 334 116 5 14 9 153 9 310 0 285 0 285-25 308-15 14-44 26-70 29-54 8-137-2-147-17-4-6-8-125-8-265 0-289 3-280-83-281-55 0-101 20-119 53-9 15-14 90-18 239-5 216-5 218-30 242-26 25-104 38-181 29zm1800 0c-36-4-36-4-43-80-10-122-7-517 5-571 6-30 20-59 35-73 23-21 35-24 110-24 46 1 88 5 94 11 13 13 14 641 1 677-6 14-20 33-33 41-25 16-112 26-169 19zm-9046-205c-19-24-20-43-6-70 15-31 17-32 44-18 13 7 19 21 19 43 0 49-34 74-57 45zm-539-192c-3-8-4-31-2-52 3-39 3-39 218-146 118-60 220-108 228-108 10 0 12 14 10 53l-3 52-215 107c-118 59-219 107-223 108-4 0-10-6-13-14zm527-282c-12-26-9-36 17-66 22-26 52-6 52 35 0 58-47 79-69 31zM546 893c-3-4-6-28-6-54v-47l223-111c122-61 225-111 230-111 4 0 7 24 7 53 0 54 0 54-67 87-38 18-138 68-224 111s-159 75-163 72zm541-276c-26-21-29-52-8-78 27-32 55-16 59 34 4 42-23 66-51 44z"/></g></svg><svg xmlns="http://www.w3.org/2000/svg" width="1154" height="288" version="1.0" viewBox="0 0 1154 288"><g fill="#5dd0ff" transform="matrix(.1 0 0 -.1 0 288)"><path d="M1165 2405c-53-14-72-20-345-115-96-33-236-81-310-106-210-71-210-71-210-344 0-227 6-250 77-309 31-26 607-319 733-374 103-45 149-47 247-13 56 19 336 147 649 297 70 33 89 36 98 13 10-25 7-230-3-258-7-17-32-35-83-59-40-19-131-63-203-97-71-34-168-80-215-102s-121-57-165-78c-101-48-139-60-184-60-65 0-90 11-580 253-260 128-292 135-342 79-29-32-29-32-29-210 0-173 1-179 24-211 14-18 35-40 47-49 32-22 691-348 763-378 79-32 155-32 238 0 120 47 826 404 837 424 8 16 6 26-10 46-11 14-28 26-37 26-8 0-198-91-421-202-406-202-406-202-486-202-93 1-64-11-524 218-162 80-303 154-313 163-16 14-18 33-18 155 0 165-4 161 128 94 108-54 507-250 582-284 74-34 202-36 270-5 141 65 746 366 769 382 55 40 65 79 62 251-2 170-8 187-62 215-36 19-57 14-186-47-45-21-85-38-88-38-2 0-34-13-70-30s-68-30-70-30-28-11-57-24c-68-30-144-64-185-82-18-8-48-20-65-28-119-52-188-58-282-24-34 11-204 93-379 180-246 124-323 167-342 192-24 32-25 37-25 209 0 176 0 176 27 195 16 11 64 31 108 45s172 58 285 97c357 125 349 122 430 123 67 0 96-7 270-66 107-37 269-92 360-122 192-65 212-74 208-93-2-8-34-32-73-54-76-43-450-228-459-228-4 0-25-8-49-19-95-42-175-51-251-29-22 7-95 39-161 71-250 124-408 197-425 197-20 0-50-31-50-51 1-28 29-49 131-97 57-27 178-85 269-129s182-86 204-93c58-19 206-8 291 21 86 29 585 276 640 316 73 54 77 142 8 191-16 11-98 43-183 71-85 29-164 56-175 61s-54 20-95 34-129 44-195 67c-197 69-257 78-350 54zm9010-362c-64-16-102-81-90-153 13-79 76-117 165-100 65 12 100 54 100 121 0 45-4 55-36 85-50 49-84 60-139 47zm-5188-73c-45-8-59-20-26-21 13 0 18-3 12-6-7-2-13-12-13-22 0-9-5-22-11-28-7-7-14-49-18-95l-6-83-101 4c-75 2-113-1-150-14-64-21-135-67-130-82 3-8-1-10-11-6-12 5-15 2-10-10 4-10 2-16-6-14-7 1-11-6-9-16s-3-16-10-15c-7 2-12-5-12-14 1-10-3-16-10-15-6 1-10-10-9-28 2-20 0-25-6-16-25 40-45-213-22-287 36-120 147-217 289-253 77-19 248-1 329 36 86 38 115 72 120 137 2 29 0 220-4 424-9 419-5 402-88 423-24 6-47 10-52 10-4-1-25-5-46-9zm-67-461c7-13 11-79 11-177-2-184-5-192-84-192-106 0-172 75-171 195 0 117 73 194 186 195 38 0 50-4 58-21zm4807 464c-29-3-37-8-33-19 8-21-14-115-25-109-5 4-6-19-3-53 5-45 3-61-7-68-8-4-66-8-129-9-103 0-121-3-172-27-65-30-140-102-164-156-9-21-21-47-27-60s-11-72-11-130c0-129 22-196 89-269 126-141 365-174 562-77 40 19 77 43 82 52 11 21 18 838 7 870-4 12-14 22-22 22s-14 4-14 9c0 17-73 30-133 24zm-81-457c18-14 19-26 17-178-2-156-3-163-25-180-34-26-107-23-149 5-61 41-79 79-79 171 0 87 8 108 59 154 46 40 140 55 177 28zm-6613 388c-64-14-156-55-169-75-5-8-3-9 7-4 8 5 5-1-5-13-23-26-30-28-22-6 5 14 4 15-9 4-8-7-12-17-8-23 3-5 2-7-4-4-13 8-67-49-59-62 7-11-19-56-32-56-4 0-6-11-4-25 2-19 0-22-7-10-8 12-11 11-16-5-4-11-11-31-17-45s-13-73-16-131c-3-81 0-119 13-165 40-140 123-242 238-294 96-42 157-53 271-48 110 6 164 23 209 65 23 23 27 35 27 79 0 42-5 58-22 74-12 11-26 20-30 20-5 0-6 5-2 11s-17-1-47-17c-47-26-64-29-134-29-68 1-88 5-125 27-43 25-110 89-111 105 0 5-9 36-19 71-19 61-19 67-4 135 31 138 106 214 221 224 49 4 70 0 138-27l80-32 27 31c41 46 39 106-4 148-49 46-110 73-180 79-35 2-76 6-93 8-16 2-58-3-92-10zm-236-159c-23-22-33-18-12 5 10 11 20 18 23 16 2-3-3-12-11-21zm4290 162c-33-7-57-14-54-17s-5-6-19-6c-29-2-116-52-109-63 2-5-3-15-12-22-14-12-16-12-8 1s7 13-8 1c-11-8-15-22-12-35 3-12 2-15-1-8-10 22-24 2-18-26 4-19 3-23-4-13-14 20-23-1-29-68-7-78 16-146 65-193 45-43 69-56 242-128 102-42 138-61 147-80 8-17 9-28 2-37-6-7-7-18-3-24 5-8 3-9-5-5-8 5-14 1-17-11-3-10-14-24-25-31-24-15-25-4-1 15 15 13 15 13-5 4-12-6-54-11-93-11-68 0-116 16-232 78-14 7-68-62-74-94-24-129 181-218 424-185 113 15 172 42 232 107 56 62 77 132 65 213-10 64-25 90-91 149-63 57-119 87-238 126-43 14-89 32-102 41-45 29-20 96 42 111 42 11 164-2 226-24l57-20 31 35c73 83 4 182-150 211-93 19-162 21-223 9zm658-41c-5-2-22-7-37-10-26-6-26-6-27-361-1-224 2-369 9-394 15-55 51-95 116-127 49-24 65-27 150-25 139 2 184 32 184 121-1 67-12 75-102 75-44 0-82 5-88 11-19 19-30 84-30 181 0 114 8 123 117 123 60 0 77 4 93 20 25 25 27 105 4 138-14 20-24 22-98 22-90 0-106 8-106 52 0 65-21 128-50 148-27 19-111 35-135 26zm-7198-92c-4-4-7-29-7-55v-47l224-111c123-61 227-111 230-111s6 25 6 55v55l-217 107c-120 60-220 109-224 111-3 1-8-1-12-4zm3301-54c-65-8-167-54-175-79-4-9-13-23-22-32-33-33-61-69-61-78 0-6-5-13-12-17-7-5-8-3-3 6s4 11-3 6c-7-4-10-18-6-34 4-20 3-23-5-12-18 27-26-18-26-155 0-122 2-133 27-180 49-93 146-166 261-197 63-16 224 1 289 32 60 28 132 100 166 165 22 43 27 66 30 163 5 123-4 159-57 236-69 100-143 150-256 171-42 8-80 14-83 14-4-1-33-5-64-9zm132-213c49-32 72-78 78-155 3-37 10-70 15-74 17-10-20-81-61-120-20-18-28-22-17-9 20 23 20 23-23 1-83-43-157 3-186 117-25 96-8 170 51 224 49 46 93 51 143 16zm97-109c-3-8-6-5-6 6-1 11 2 17 5 13 3-3 4-12 1-19zm1557 322c-101-15-250-106-229-139 3-7 1-10-6-9-18 4-55-70-69-139-24-114 1-240 66-335 32-46 124-110 189-133 150-52 394-13 434 70 21 44 5 96-37 117-31 15-37 15-78 0-24-9-44-19-44-22s-42-3-92 0c-93 5-124 15-165 53-24 22-31 57-11 57 30 0 367 52 395 61 18 6 42 22 54 37 18 23 20 36 16 87-4 58-32 135-49 135-4 0-8 6-8 14 0 16-54 66-109 101-32 20-172 58-198 54-4-1-31-5-59-9zm163-222c13-12 23-29 23-39 0-17-35-36-55-30-5 1-52-5-103-15-110-20-123-15-96 41 19 40 45 61 102 80 42 15 88 2 129-37zm5012 222c-92-12-240-93-222-122 3-6 1-8-4-5-13 8-46-40-38-53 3-6 0-10-7-10-18 0-35-42-49-123-16-84-1-194 35-266 41-80 139-156 245-190 47-15 143-13 225 4 111 24 188 85 247 195 21 40 24 58 24 170 0 118-2 128-29 181-33 66-100 138-163 174-35 21-176 59-201 54-4-1-32-5-63-9zm119-204c82-43 105-126 80-291-4-26-28-68-35-61-3 2-22-4-41-15-20-10-45-19-55-19-25 0-68 23-94 52-26 28-56 145-48 185 4 16 8 38 11 50 5 28 61 92 88 103 32 13 64 12 94-4zm105-261c-3-9-8-14-10-11-3 3-2 9 2 15 9 16 15 13 8-4zm-4658 440c-94-33-149-72-153-110-2-17-8-34-13-39-12-13-12-482 1-525 14-50 32-58 136-60 92-2 94-1 94 21 1 13 0 125 0 251-1 236 4 267 40 267 11 0 20 4 20 10 0 5 10 9 23 9 12-1 54 2 92 6 80 8 95 21 95 76 0 42-38 91-84 109-50 18-175 11-251-15zm-3635 4c0-5 5-7 10-4 6 3 10 8 10 11 0 2-4 4-10 4-5 0-10-5-10-11zm5600 5c-47-9-56-14-41-24 12-7 12-18 2-67-8-38-12-125-9-258 3-188 4-203 27-245 49-91 137-145 267-162 158-20 339 23 400 95 25 29 25 29 24 314s-1 285-24 308c-33 33-96 48-159 38-28-4-52-14-55-22s0-11 6-7c7 4 8-4 1-26-5-18-9-129-9-246 0-120-4-221-10-232-11-20-59-40-98-40-36 0-99 39-111 69-5 14-13 116-16 225-3 110-8 210-11 222-3 13-16 30-28 38-24 15-115 27-156 20zm1853-23c-29-4-57-11-62-16-12-13-22-113-24-243-1-56-6-102-10-102-5 0-7-70-5-155 4-200 6-203 161-206 32-1 62 2 67 7 13 13 20 632 8 666-6 16-17 28-25 28s-12 4-9 8c3 5 0 9-7 9s-19 3-27 5c-8 3-39 2-67-1zm-63-653c0-5-4-8-10-8-5 0-10 10-10 23 0 18 2 19 10 7 5-8 10-18 10-22zm-9047 470c-19-24-20-43-6-70 15-31 17-32 44-18 13 7 19 21 19 43 0 49-34 74-57 45zm-539-192c-3-8-4-31-2-52 3-39 3-39 218-146 118-60 220-108 228-108 10 0 12 14 10 53l-3 52-215 107c-118 59-219 107-223 108-4 0-10-6-13-14zm527-282c-12-26-9-36 17-66 22-26 52-6 52 35 0 58-47 79-69 31zM546 893c-3-4-6-28-6-54v-47l223-111c122-61 225-111 230-111 4 0 7 24 7 53 0 54 0 54-67 87-38 18-138 68-224 111s-159 75-163 72zm541-276c-26-21-29-52-8-78 27-32 55-16 59 34 4 42-23 66-51 44z"/></g></svg><svg xmlns="http://www.w3.org/2000/svg" width="1154" height="288" version="1.0" viewBox="0 0 1154 288"><g fill="#4f9aae" transform="matrix(.1 0 0 -.1 0 288)"><path d="M1165 2405c-53-14-72-20-345-115-96-33-236-81-310-106-210-71-210-71-210-344 0-227 6-250 77-309 31-26 607-319 733-374 103-45 149-47 247-13 56 19 336 147 649 297 70 33 89 36 98 13 10-25 7-230-3-258-7-17-32-35-83-59-40-19-131-63-203-97-71-34-168-80-215-102s-121-57-165-78c-101-48-139-60-184-60-65 0-90 11-580 253-260 128-292 135-342 79-29-32-29-32-29-210 0-173 1-179 24-211 14-18 35-40 47-49 32-22 691-348 763-378 79-32 155-32 238 0 120 47 826 404 837 424 8 16 6 26-10 46-11 14-28 26-37 26-8 0-198-91-421-202-406-202-406-202-486-202-93 1-64-11-524 218-162 80-303 154-313 163-16 14-18 33-18 155 0 165-4 161 128 94 108-54 507-250 582-284 74-34 202-36 270-5 141 65 746 366 769 382 55 40 65 79 62 251-2 170-8 187-62 215-36 19-57 14-186-47-45-21-85-38-88-38-2 0-34-13-70-30s-68-30-70-30-28-11-57-24c-68-30-144-64-185-82-18-8-48-20-65-28-119-52-188-58-282-24-34 11-204 93-379 180-246 124-323 167-342 192-24 32-25 37-25 209 0 176 0 176 27 195 16 11 64 31 108 45s172 58 285 97c357 125 349 122 430 123 67 0 96-7 270-66 107-37 269-92 360-122 192-65 212-74 208-93-2-8-34-32-73-54-76-43-450-228-459-228-4 0-25-8-49-19-95-42-175-51-251-29-22 7-95 39-161 71-250 124-408 197-425 197-20 0-50-31-50-51 1-28 29-49 131-97 57-27 178-85 269-129s182-86 204-93c58-19 206-8 291 21 86 29 585 276 640 316 73 54 77 142 8 191-16 11-98 43-183 71-85 29-164 56-175 61s-54 20-95 34-129 44-195 67c-197 69-257 78-350 54zm-618-631c-4-4-7-29-7-55v-47l224-111c123-61 227-111 230-111s6 25 6 55v55l-217 107c-120 60-220 109-224 111-3 1-8-1-12-4zm536-276c-19-24-20-43-6-70 15-31 17-32 44-18 13 7 19 21 19 43 0 49-34 74-57 45zm-539-192c-3-8-4-31-2-52 3-39 3-39 218-146 118-60 220-108 228-108 10 0 12 14 10 53l-3 52-215 107c-118 59-219 107-223 108-4 0-10-6-13-14zm527-282c-12-26-9-36 17-66 22-26 52-6 52 35 0 58-47 79-69 31zM546 893c-3-4-6-28-6-54v-47l223-111c122-61 225-111 230-111 4 0 7 24 7 53 0 54 0 54-67 87-38 18-138 68-224 111s-159 75-163 72zm541-276c-26-21-29-52-8-78 27-32 55-16 59 34 4 42-23 66-51 44z"/></g></svg><svg xmlns="http://www.w3.org/2000/svg" width="1154" height="288" version="1.0" viewBox="0 0 1154 288"><g fill="#026e9c" transform="matrix(.1 0 0 -.1 0 288)"><path d="M1175 2405c-33-8-144-43-247-80-104-36-269-93-368-126-99-34-191-70-204-80-49-39-56-72-56-278 0-141 4-200 14-225 31-73 74-101 463-294 374-186 374-186 456-190 99-5 76-13 507 187 178 84 333 151 345 149 19-3 20-11 23-139 2-122 1-137-16-152-20-18-689-339-756-363-53-19-113-17-177 5-30 10-205 92-388 182-369 180-388 186-438 136-28-27-28-27-31-194-2-91-1-177 2-189 16-63 61-92 406-263 493-246 509-251 630-215 30 9 238 108 462 220 307 154 408 208 408 222 0 24-28 62-45 62-8 0-197-91-420-202-390-195-407-202-473-206-56-3-80 1-133 22-106 42-707 344-729 366-18 18-20 33-20 144 0 124 4 156 21 156 4 0 129-59 276-131 503-247 522-253 631-225 67 17 806 377 840 409 47 44 52 66 52 237 0 162 0 162-29 191-43 42-71 42-169-3-321-144-667-288-711-296-97-18-131-5-586 225-348 175-325 149-325 381 0 169 2 176 50 202 21 11 562 198 685 236 120 38 165 32 435-61 124-42 292-99 373-127 82-28 151-57 154-64 3-8 0-21-6-28-7-8-132-75-279-148-434-218-449-220-729-85-98 47-227 108-286 137-60 28-116 50-125 48s-23-15-31-30c-13-23-13-28-1-44 19-21 525-269 593-289 148-44 279-5 701 209 231 117 286 159 286 220 0 31-7 46-37 76-32 31-63 45-203 92-91 31-259 88-375 128-184 63-318 101-350 99-5 0-37-7-70-14zm-627-676c-1-28 2-54 7-59 6-4 105-55 221-113l212-106 6 51c4 28 6 52 4 53-2 2-103 53-225 114l-221 110-4-50zm532-238c-21-41-5-81 32-81 23 0 34 44 19 76-13 29-36 31-51 5zm-530-198c0-15-3-38-6-50-6-20 13-32 216-133 122-61 224-110 225-108 2 2 6 24 10 51l7 47-218 107c-121 59-222 109-226 111-5 2-8-9-8-25zm532-255c-34-34 7-108 44-77 27 22 12 89-21 89-6 0-16-5-23-12zM548 858c-1-21-2-44-2-52-1-8 85-57 219-124l220-110 8 45c5 28 4 50-2 56-5 5-107 58-225 116L550 895l-2-37zm528-254c-20-52 15-101 48-68 29 29 17 84-19 84-13 0-26-7-29-16z"/></g></svg></g></svg>
